<svg width="20" height="20" viewBox="0 0 20 20" fill="none" xmlns="http://www.w3.org/2000/svg">
<path fill-rule="evenodd" clip-rule="evenodd" d="M18.6529 0.348827C18.7635 0.459122 18.8512 0.590147 18.9111 0.734398C18.9709 0.878649 19.0017 1.03329 19.0017 1.18947C19.0017 1.34565 18.9709 1.50029 18.9111 1.64454C18.8512 1.78879 18.7635 1.91982 18.6529 2.03011L2.03007 18.653C1.80712 18.8759 1.50473 19.0012 1.18943 19.0012C0.874124 19.0012 0.571736 18.8759 0.348784 18.653C0.125833 18.43 0.000579761 18.1276 0.000579759 17.8123C0.000579757 17.497 0.125833 17.1946 0.348784 16.9717L16.9716 0.348827C17.0819 0.238254 17.2129 0.150526 17.3572 0.0906683C17.5015 0.0308107 17.6561 0 17.8123 0C17.9684 0 18.1231 0.0308107 18.2673 0.0906683C18.4116 0.150526 18.5426 0.238254 18.6529 0.348827Z" fill="black"/>
<path fill-rule="evenodd" clip-rule="evenodd" d="M0.348827 0.348827C0.238254 0.459122 0.150526 0.590147 0.0906683 0.734398C0.0308107 0.878649 0 1.03329 0 1.18947C0 1.34565 0.0308107 1.50029 0.0906683 1.64454C0.150526 1.78879 0.238254 1.91982 0.348827 2.03011L16.9717 18.653C17.1946 18.8759 17.497 19.0012 17.8123 19.0012C18.1276 19.0012 18.43 18.8759 18.653 18.653C18.8759 18.43 19.0012 18.1276 19.0012 17.8123C19.0012 17.497 18.8759 17.1946 18.653 16.9717L2.03011 0.348827C1.91982 0.238254 1.78879 0.150526 1.64454 0.0906683C1.50029 0.0308107 1.34565 0 1.18947 0C1.03329 0 0.878649 0.0308107 0.734398 0.0906683C0.590147 0.150526 0.459122 0.238254 0.348827 0.348827Z" fill="black"/>
</svg>