<svg width="17" height="17" viewBox="0 0 17 17" fill="none" xmlns="http://www.w3.org/2000/svg">
<path d="M8.5 0.1875C3.90957 0.1875 0.1875 3.90957 0.1875 8.5C0.1875 13.0904 3.90957 16.8125 8.5 16.8125C13.0904 16.8125 16.8125 13.0904 16.8125 8.5C16.8125 3.90957 13.0904 0.1875 8.5 0.1875ZM9.09375 12.5078C9.09375 12.5895 9.02695 12.6562 8.94531 12.6562H8.05469C7.97305 12.6562 7.90625 12.5895 7.90625 12.5078V7.46094C7.90625 7.3793 7.97305 7.3125 8.05469 7.3125H8.94531C9.02695 7.3125 9.09375 7.3793 9.09375 7.46094V12.5078ZM8.5 6.125C8.26694 6.12024 8.04503 6.02432 7.88189 5.85781C7.71875 5.69131 7.62737 5.46748 7.62737 5.23438C7.62737 5.00127 7.71875 4.77744 7.88189 4.61094C8.04503 4.44443 8.26694 4.34851 8.5 4.34375C8.73306 4.34851 8.95497 4.44443 9.11811 4.61094C9.28126 4.77744 9.37263 5.00127 9.37263 5.23438C9.37263 5.46748 9.28126 5.69131 9.11811 5.85781C8.95497 6.02432 8.73306 6.12024 8.5 6.125Z" fill="white"/>
</svg>
