<svg width="20" height="19" viewBox="0 0 20 19" fill="none" xmlns="http://www.w3.org/2000/svg">
<path d="M3.15789 0H16.8421C17.6796 0 18.4829 0.33363 19.0751 0.927495C19.6673 1.52136 20 2.32681 20 3.16667V12.6667C20 13.5065 19.6673 14.312 19.0751 14.9058C18.4829 15.4997 17.6796 15.8333 16.8421 15.8333H13.1579L10 19L6.84211 15.8333H3.15789C2.32037 15.8333 1.51715 15.4997 0.924926 14.9058C0.332706 14.312 0 13.5065 0 12.6667V3.16667C0 2.32681 0.332706 1.52136 0.924926 0.927495C1.51715 0.33363 2.32037 0 3.15789 0ZM3.15789 1.05556C2.59954 1.05556 2.06406 1.27798 1.66925 1.67389C1.27444 2.0698 1.05263 2.60677 1.05263 3.16667V12.6667C1.05263 13.2266 1.27444 13.7635 1.66925 14.1594C2.06406 14.5554 2.59954 14.7778 3.15789 14.7778H7.27789L10 17.5074L12.7221 14.7778H16.8421C17.4005 14.7778 17.9359 14.5554 18.3308 14.1594C18.7256 13.7635 18.9474 13.2266 18.9474 12.6667V3.16667C18.9474 2.60677 18.7256 2.0698 18.3308 1.67389C17.9359 1.27798 17.4005 1.05556 16.8421 1.05556H3.15789ZM3.15789 4.22222H16.8421V5.27778H3.15789V4.22222ZM3.15789 7.38889H15.7895V8.44444H3.15789V7.38889ZM3.15789 10.5556H11.5789V11.6111H3.15789V10.5556Z" fill="black"/>
</svg>